<?xml version="1.0" standalone="no"?>
<!DOCTYPE svg PUBLIC "-//W3C//DTD SVG 20010904//EN"
 "http://www.w3.org/TR/2001/REC-SVG-20010904/DTD/svg10.dtd">
<svg version="1.0" xmlns="http://www.w3.org/2000/svg"
 width="64.000000pt" height="64.000000pt" style="" viewBox="0 0 64.000000 64.000000"
 preserveAspectRatio="xMidYMid meet">

<g transform="translate(0.000000,64.000000) scale(0.100000,-0.100000)"
fill="#000000" stroke="none">
<path d="M315 632 c-31 -7 -65 -33 -58 -45 3 -6 1 -7 -5 -3 -16 10 -37 -43
-22 -58 7 -7 10 -6 10 4 0 7 2 11 5 8 3 -3 2 -13 -1 -22 -4 -10 -10 -13 -13
-8 -3 6 -22 12 -41 14 -19 1 -38 7 -42 12 -9 14 -72 -20 -86 -46 -14 -28 -11
-93 6 -110 17 -17 15 -28 -6 -28 -20 0 -45 -24 -55 -52 -11 -31 13 -86 54
-122 48 -44 77 -57 150 -65 3 -1 4 -26 1 -56 l-4 -55 46 0 46 0 0 80 c0 72 -2
80 -19 80 -31 0 -90 29 -113 55 -11 13 -25 22 -30 19 -5 -3 -7 0 -6 8 2 7 -3
12 -10 10 -10 -2 -10 2 -1 19 10 19 17 21 71 16 33 -3 67 -12 76 -21 16 -14
17 -12 14 23 -4 44 21 111 42 111 25 0 46 -42 46 -91 l0 -47 28 13 c15 7 52
15 82 17 30 3 50 3 44 1 -7 -2 -10 -12 -7 -21 10 -39 -95 -112 -161 -112 -13
0 -16 -13 -16 -80 l0 -80 49 0 50 0 -6 53 -5 54 38 6 c88 15 159 76 171 150 4
29 1 40 -19 60 -13 13 -30 26 -37 28 -9 3 -10 11 -2 32 19 50 13 82 -21 116
-33 32 -75 41 -84 17 -8 -21 -43 -8 -37 14 3 10 0 27 -6 39 -10 17 -16 19 -37
11 -17 -7 -23 -7 -19 0 3 6 13 10 21 10 8 0 14 4 14 9 0 22 -57 42 -95 33z
m-22 -205 c3 -8 -1 -14 -8 -14 -7 0 -11 6 -8 14 3 7 6 13 8 13 2 0 5 -6 8 -13z
m-236 -133 c2 -13 1 -15 -4 -4 -3 8 -11 19 -17 23 -7 6 -6 7 4 4 8 -2 16 -12
17 -23z m473 -134 c0 -5 -5 -10 -11 -10 -5 0 -7 5 -4 10 3 6 8 10 11 10 2 0 4
-4 4 -10z m-243 -57 c-3 -10 -5 -4 -5 12 0 17 2 24 5 18 2 -7 2 -21 0 -30z"/>
</g>
</svg>
